<svg width="2000" height="938" viewBox="0 0 2000 938" fill="none" xmlns="http://www.w3.org/2000/svg">
  <defs>
    <!-- Outer glow filter -->
    <filter id="outerGlow" x="-50%" y="-50%" width="200%" height="200%">
      <feGaussianBlur stdDeviation="15" result="coloredBlur"/>
      <feMerge> 
        <feMergeNode in="coloredBlur"/>
        <feMergeNode in="SourceGraphic"/>
      </feMerge>
    </filter>
    
    <!-- Medium glow filter -->
    <filter id="mediumGlow" x="-30%" y="-30%" width="160%" height="160%">
      <feGaussianBlur stdDeviation="8" result="coloredBlur"/>
      <feMerge> 
        <feMergeNode in="coloredBlur"/>
        <feMergeNode in="SourceGraphic"/>
      </feMerge>
    </filter>
    
    <!-- Inner glow filter -->
    <filter id="innerGlow" x="-20%" y="-20%" width="140%" height="140%">
      <feGaussianBlur stdDeviation="4" result="coloredBlur"/>
      <feMerge> 
        <feMergeNode in="coloredBlur"/>
        <feMergeNode in="SourceGraphic"/>
      </feMerge>
    </filter>
  </defs>
  
  <!-- Outer glow layer -->
  <g filter="url(#outerGlow)">
    <path d="M573.469 0C905.238 0 1090.91 155.607 1097.62 384.516L810.661 393.344C803.953 266.364 689.796 182.917 573.469 185.407C413.288 188.798 295.652 293.462 295.651 460.608C295.651 627.756 413.287 730.831 573.469 730.831C689.796 730.831 800.406 651.146 813.701 524.166L1100.66 530.583C1093.95 762.994 895.975 921.938 573.469 921.938C251.963 921.938 0 740.554 0 460.608C0.00214925 179.317 241.196 0.000740205 573.469 0ZM1993.78 27.2109V899.422H1237.41V27.2109H1993.78Z" 
          fill="none" 
          stroke="#00D4FF" 
          stroke-width="12" 
          opacity="0.4"/>
  </g>
  
  <!-- Medium glow layer -->
  <g filter="url(#mediumGlow)">
    <path d="M573.469 0C905.238 0 1090.91 155.607 1097.62 384.516L810.661 393.344C803.953 266.364 689.796 182.917 573.469 185.407C413.288 188.798 295.652 293.462 295.651 460.608C295.651 627.756 413.287 730.831 573.469 730.831C689.796 730.831 800.406 651.146 813.701 524.166L1100.66 530.583C1093.95 762.994 895.975 921.938 573.469 921.938C251.963 921.938 0 740.554 0 460.608C0.00214925 179.317 241.196 0.000740205 573.469 0ZM1993.78 27.2109V899.422H1237.41V27.2109H1993.78Z" 
          fill="none" 
          stroke="#66E5FF" 
          stroke-width="8" 
          opacity="0.7"/>
  </g>
  
  <!-- Inner glow layer -->
  <g filter="url(#innerGlow)">
    <path d="M573.469 0C905.238 0 1090.91 155.607 1097.62 384.516L810.661 393.344C803.953 266.364 689.796 182.917 573.469 185.407C413.288 188.798 295.652 293.462 295.651 460.608C295.651 627.756 413.287 730.831 573.469 730.831C689.796 730.831 800.406 651.146 813.701 524.166L1100.66 530.583C1093.95 762.994 895.975 921.938 573.469 921.938C251.963 921.938 0 740.554 0 460.608C0.00214925 179.317 241.196 0.000740205 573.469 0ZM1993.78 27.2109V899.422H1237.41V27.2109H1993.78Z" 
          fill="none" 
          stroke="#AAEEFF" 
          stroke-width="4" 
          opacity="0.9"/>
  </g>
  
  <!-- Main neon line -->
  <path d="M573.469 0C905.238 0 1090.91 155.607 1097.62 384.516L810.661 393.344C803.953 266.364 689.796 182.917 573.469 185.407C413.288 188.798 295.652 293.462 295.651 460.608C295.651 627.756 413.287 730.831 573.469 730.831C689.796 730.831 800.406 651.146 813.701 524.166L1100.66 530.583C1093.95 762.994 895.975 921.938 573.469 921.938C251.963 921.938 0 740.554 0 460.608C0.00214925 179.317 241.196 0.000740205 573.469 0ZM1993.78 27.2109V899.422H1237.41V27.2109H1993.78Z" 
        fill="none" 
        stroke="#FFFFFF" 
        stroke-width="2"/>
</svg>