<svg width="147" height="69" viewBox="0 0 147 69" fill="none" xmlns="http://www.w3.org/2000/svg">
<path fill-rule="evenodd" clip-rule="evenodd" d="M42.1554 0C17.7497 0 0 13.1721 0 33.845C0 54.4264 18.4892 67.69 42.1554 67.69C65.8216 67.69 80.3357 56.0729 80.8903 38.9675L59.8126 38.5101C58.8882 47.8404 50.7067 53.6946 42.1554 53.6946C30.4148 53.6946 21.7248 46.1024 21.7248 33.845C21.7248 21.5876 30.4148 13.8582 42.1554 13.6295C50.7067 13.4465 59.0731 19.5752 59.6277 28.9055L80.7054 28.2652C80.2432 11.4341 66.5612 0 42.1554 0ZM91 2H146.468V66.0311H91V2Z" fill="white"/>
</svg>
